<?xml version="1.0" encoding="iso-8859-1"?>
<!-- Generator: Adobe Illustrator 16.0.0, SVG Export Plug-In . SVG Version: 6.00 Build 0)  -->
<!DOCTYPE svg PUBLIC "-//W3C//DTD SVG 1.1//EN" "http://www.w3.org/Graphics/SVG/1.1/DTD/svg11.dtd">
<svg xmlns="http://www.w3.org/2000/svg" xmlns:xlink="http://www.w3.org/1999/xlink" version="1.1" id="Capa_1" x="0px" y="0px" width="512px" height="512px" viewBox="0 0 31.172 31.172" style="enable-background:new 0 0 31.172 31.172;" xml:space="preserve">
<g>
	<g>
		<rect x="8.325" y="17.797" width="9.625" height="1.125" fill="#FFFFFF"/>
		<rect x="8.325" y="14.948" width="11.875" height="1.125" fill="#FFFFFF"/>
		<rect x="8.325" y="21.087" width="5.938" height="1.125" fill="#FFFFFF"/>
		<rect x="8.325" y="11.949" width="9.625" height="1.125" fill="#FFFFFF"/>
		<rect x="8.325" y="6.324" width="7.108" height="3.874" fill="#FFFFFF"/>
		<path d="M22.542,23.227c0-1.738-1.408-3.146-3.146-3.146c-1.732,0-3.141,1.405-3.141,3.146c0,1.732,1.407,3.139,3.141,3.139    C21.134,26.365,22.542,24.959,22.542,23.227z" fill="#FFFFFF"/>
		<polygon points="23.998,24.32 19.401,27.952 21.946,31.172 23.159,27.982 26.542,27.54   " fill="#FFFFFF"/>
		<polygon points="11.316,25.77 14.506,26.982 14.947,30.366 18.167,27.82 14.535,23.223   " fill="#FFFFFF"/>
		<path d="M11.844,26.998H6.025V1.395h12.006L18.008,6.27h5.184v17.367l0.951-0.674l0.442,0.553V4.875h-0.011l0.022-0.023    l-5.165-4.813V0H4.629v28.395h8.954l-0.097-0.75L11.844,26.998z M19.424,1.938l3.15,2.937h-3.166L19.424,1.938z" fill="#FFFFFF"/>
	</g>
</g>
<g>
</g>
<g>
</g>
<g>
</g>
<g>
</g>
<g>
</g>
<g>
</g>
<g>
</g>
<g>
</g>
<g>
</g>
<g>
</g>
<g>
</g>
<g>
</g>
<g>
</g>
<g>
</g>
<g>
</g>
</svg>
