<?xml version="1.0" encoding="iso-8859-1"?>
<!-- Generator: Adobe Illustrator 19.0.0, SVG Export Plug-In . SVG Version: 6.00 Build 0)  -->
<svg xmlns="http://www.w3.org/2000/svg" xmlns:xlink="http://www.w3.org/1999/xlink" version="1.1" id="Capa_1" x="0px" y="0px" viewBox="0 0 512.001 512.001" style="enable-background:new 0 0 512.001 512.001;" xml:space="preserve" width="512px" height="512px">
<g>
	<g>
		<path d="M376.602,253.974c-41.468,0-75.205,33.737-75.205,75.205c0,41.468,33.737,75.205,75.205,75.205    s75.204-33.737,75.204-75.205S418.07,253.974,376.602,253.974z M376.602,384.384c-30.44,0-55.205-24.765-55.205-55.205    s24.765-55.205,55.205-55.205c30.439,0,55.204,24.765,55.204,55.205C431.806,359.619,407.041,384.384,376.602,384.384z" fill="#FFFFFF"/>
	</g>
</g>
<g>
	<g>
		<path d="M135.4,253.974c-41.468,0-75.205,33.737-75.205,75.205c0,41.468,33.737,75.205,75.205,75.205    c41.468,0,75.205-33.737,75.205-75.205S176.868,253.974,135.4,253.974z M135.4,384.384c-30.44,0-55.205-24.765-55.205-55.205    s24.765-55.205,55.205-55.205s55.205,24.765,55.205,55.205C190.605,359.619,165.84,384.384,135.4,384.384z" fill="#FFFFFF"/>
	</g>
</g>
<g>
	<g>
		<path d="M402.151,88.7c-4.898-11.089-13.861-19.501-25.239-23.686c-11.376-4.184-23.653-3.587-34.57,1.684    c-20.857,10.07-30.475,34.811-21.897,56.325l2.768,6.948c1.561,3.915,5.319,6.299,9.292,6.298c1.232,0,2.486-0.23,3.701-0.714    c5.13-2.046,7.63-7.863,5.585-12.993l-2.77-6.947c-4.707-11.805,0.57-25.381,12.015-30.907c5.988-2.894,12.727-3.221,18.97-0.924    c6.242,2.297,11.161,6.913,13.849,12.997c2.233,5.052,8.134,7.337,13.189,5.107C402.096,99.656,404.382,93.752,402.151,88.7z" fill="#FFFFFF"/>
	</g>
</g>
<g>
	<g>
		<path d="M418.061,125.132c-0.13-0.64-0.319-1.27-0.569-1.87c-0.25-0.61-0.561-1.19-0.921-1.73c-0.359-0.55-0.779-1.06-1.239-1.52    c-0.46-0.46-0.971-0.88-1.52-1.24c-0.54-0.36-1.12-0.67-1.73-0.92c-0.601-0.25-1.23-0.44-1.87-0.57c-1.29-0.26-2.62-0.26-3.91,0    c-0.63,0.13-1.26,0.32-1.87,0.57c-0.6,0.25-1.18,0.56-1.72,0.92c-0.551,0.36-1.061,0.78-1.521,1.24    c-0.46,0.46-0.88,0.97-1.25,1.52c-0.359,0.54-0.67,1.12-0.92,1.73c-0.25,0.6-0.439,1.23-0.569,1.87    c-0.131,0.64-0.19,1.3-0.19,1.95c0,0.65,0.059,1.31,0.19,1.95c0.13,0.64,0.319,1.27,0.569,1.88c0.25,0.6,0.561,1.18,0.92,1.72    c0.37,0.55,0.79,1.06,1.25,1.52c0.46,0.46,0.971,0.88,1.521,1.25c0.54,0.36,1.12,0.67,1.72,0.92c0.61,0.25,1.24,0.44,1.87,0.57    c0.65,0.13,1.31,0.19,1.96,0.19c0.65,0,1.309-0.06,1.95-0.19c0.64-0.13,1.27-0.32,1.87-0.57c0.609-0.25,1.189-0.56,1.73-0.92    c0.55-0.37,1.06-0.79,1.52-1.25c0.46-0.46,0.88-0.97,1.239-1.52c0.36-0.54,0.671-1.12,0.921-1.72c0.25-0.61,0.439-1.24,0.569-1.88    s0.2-1.3,0.2-1.95C418.261,126.432,418.191,125.772,418.061,125.132z" fill="#FFFFFF"/>
	</g>
</g>
<g>
	<g>
		<path d="M511.14,334.015l-81.153-182.657c-2.242-5.047-8.152-7.319-13.199-5.079c-5.047,2.243-7.32,8.152-5.078,13.199    l30.464,68.567c-18.886-12.287-41.41-19.431-65.571-19.431c-63.113,0-115.054,48.745-120.154,110.565h-0.894    c-5.099-61.819-57.041-110.565-120.154-110.565c-24.161,0-46.686,7.144-65.571,19.431l2.123-4.779    c2.242-5.047-0.031-10.956-5.079-13.199c-5.045-2.242-10.956,0.031-13.199,5.079L0.862,334.015    c-1.375,3.093-1.09,6.672,0.754,9.51c1.845,2.838,5,4.55,8.385,4.55h6.315c9.095,57.535,59.033,101.668,119.085,101.668    c63.113,0,115.054-48.745,120.154-110.564h0.894c5.099,61.819,57.041,110.564,120.154,110.564    c60.052,0,109.99-44.133,119.085-101.668h6.313c3.385,0,6.54-1.712,8.385-4.55C512.23,340.687,512.513,337.109,511.14,334.015z     M135.4,429.743c-55.451,0-100.564-45.113-100.564-100.564c0-55.452,45.113-100.565,100.564-100.565    c55.452,0,100.564,45.113,100.564,100.565C235.965,384.63,190.852,429.743,135.4,429.743z M376.602,429.743    c-55.451,0-100.565-45.113-100.565-100.564c0-55.452,45.113-100.565,100.565-100.565c55.452,0,100.564,45.113,100.564,100.565    C477.166,384.63,432.053,429.743,376.602,429.743z" fill="#FFFFFF"/>
	</g>
</g>
<g>
	<g>
		<path d="M169.664,66.699c-10.916-5.271-23.194-5.87-34.572-1.684c-11.377,4.186-20.34,12.597-25.23,23.667l-28.906,65.062    c-2.242,5.046,0.031,10.955,5.079,13.198c1.319,0.586,2.698,0.864,4.055,0.864c3.831,0,7.488-2.215,9.144-5.942l28.915-65.081    c2.688-6.085,7.605-10.7,13.848-12.997c6.243-2.297,12.979-1.97,18.971,0.924c11.444,5.526,16.721,19.101,12.015,30.906    l-2.771,6.947c-2.046,5.13,0.455,10.947,5.584,12.993c5.128,2.047,10.947-0.454,12.993-5.584l2.771-6.948    C200.138,101.511,190.52,76.77,169.664,66.699z" fill="#FFFFFF"/>
	</g>
</g>
<g>
	<g>
		<path d="M87.091,184.682c-0.13-0.64-0.32-1.27-0.57-1.87c-0.25-0.6-0.56-1.18-0.92-1.73c-0.37-0.54-0.79-1.05-1.25-1.52    c-2.32-2.32-5.77-3.38-9.02-2.73c-0.64,0.13-1.27,0.32-1.87,0.57c-0.61,0.25-1.19,0.56-1.73,0.92c-0.55,0.37-1.06,0.78-1.52,1.24    c-0.46,0.47-0.88,0.98-1.24,1.52c-0.36,0.55-0.67,1.13-0.92,1.73c-0.25,0.6-0.44,1.23-0.57,1.87c-0.13,0.65-0.2,1.3-0.2,1.96    c0,0.65,0.07,1.3,0.2,1.95c0.13,0.64,0.32,1.27,0.57,1.87c0.25,0.6,0.56,1.18,0.92,1.73c0.36,0.54,0.78,1.06,1.24,1.52    c1.86,1.86,4.44,2.93,7.07,2.93c2.64,0,5.21-1.07,7.07-2.93c0.46-0.46,0.88-0.98,1.25-1.52c0.36-0.55,0.67-1.13,0.92-1.73    s0.44-1.23,0.57-1.87c0.13-0.65,0.19-1.3,0.19-1.95C87.281,185.982,87.221,185.332,87.091,184.682z" fill="#FFFFFF"/>
	</g>
</g>
<g>
	<g>
		<path d="M136.573,293.438c-3.906-3.906-10.238-3.906-14.143,0l-19.001,19.001c-3.905,3.905-3.905,10.237,0,14.143    c1.953,1.953,4.512,2.929,7.071,2.929c2.559,0,5.119-0.976,7.071-2.929l19.002-19.001    C140.478,303.676,140.478,297.344,136.573,293.438z" fill="#FFFFFF"/>
	</g>
</g>
<g>
	<g>
		<path d="M370.824,293.438c-3.904-3.905-10.234-3.905-14.142,0l-19.002,19.001c-3.905,3.905-3.905,10.237,0,14.142    c1.953,1.953,4.512,2.929,7.071,2.929s5.118-0.977,7.071-2.929l19.002-19.001C374.729,303.675,374.729,297.343,370.824,293.438z" fill="#FFFFFF"/>
	</g>
</g>
<g>
</g>
<g>
</g>
<g>
</g>
<g>
</g>
<g>
</g>
<g>
</g>
<g>
</g>
<g>
</g>
<g>
</g>
<g>
</g>
<g>
</g>
<g>
</g>
<g>
</g>
<g>
</g>
<g>
</g>
</svg>
